PathFileType	4	(X/Y/Z)	OpenSim_Sub08_CSBaseline_Accel.trc
DataRate	CameraRate	NumFrames	NumMarkers	Units	OrigDataRate	OrigDataStartFrame	OrigNumFrames
100	100	35	8	m	100	1	5461
Frame#	Time	torso_imu_offset_imu	pelvis_imu_offset_imu	tibia_r_imu_offset_imu	femur_r_imu_offset_imu	tibia_l_imu_offset_imu	femur_l_imu_offset_imu	toes_r_imu_offset_imu	toes_l_imu_offset_imu
				X1	Y1	Z1	X2	Y2	Z2	X3	Y3	Z3	X4	Y4	Z4	X5	Y5	Z5	X6	Y6	Z6	X7	Y7	Z7	X8		Y8	Z8	

1	0	8.98938500	0.09810000	6.73760800	9.28671800	0.18599000	3.73591000	9.87797500	0.34457400	0.94086000	9.81633800	-0.39320300	1.88613900	9.78795100	-0.24561000	1.19588200	9.70457300	1.70025800	-0.01149900	5.09206300	-1.50701700	8.50622200	5.54782000	0.45859000	10.82330000
2	0.01000000	8.99229200	0.07370400	6.76186300	9.31931700	0.20648600	3.70522300	9.86143500	0.37446400	0.99195700	9.80647800	-0.41419200	1.88537800	9.76433300	-0.27732500	1.17879900	9.68432200	1.71280200	-0.00901100	5.11825600	-1.45935500	8.48111700	5.52344400	0.48362600	10.82294800
3	0.02000000	8.96623000	0.09122900	6.73339200	9.31939300	0.20719000	3.70499200	9.87381800	0.29482000	0.99567900	9.79667500	-0.43502000	1.88438400	9.75737400	-0.28507800	1.23306700	9.67039700	1.65931500	-0.06412800	5.09113500	-1.50629300	8.50690500	5.53889300	0.49882600	10.84930200
4	0.03000000	8.98430500	0.09743300	6.76226300	9.30314100	0.19787600	3.72017200	9.86081300	0.19626700	1.01312600	9.79652000	-0.43313700	1.88562400	9.76343300	-0.24819000	1.19466200	9.68017100	1.71447400	-0.04494700	5.11142800	-1.48947000	8.46635200	5.52703400	0.46560800	10.85385800
5	0.04000000	8.94784100	0.08521800	6.70493600	9.29017400	0.21901100	3.71975000	9.84780900	0.09763700	1.03051600	9.80297400	-0.43902900	1.94048600	9.75391600	-0.24723900	1.27208700	9.67310600	1.69812900	-0.02840900	5.09020700	-1.50626200	8.50746600	5.56245300	0.45118700	10.83946700
6	0.05000000	8.94339400	0.08373200	6.72875900	9.31920400	0.23757900	3.72354700	9.84839200	0.04602400	1.04890600	9.80513700	-0.41340400	1.96725200	9.73506500	-0.17824800	1.24548200	9.70508000	1.69732800	-0.01572800	5.05915000	-1.49473100	8.49677200	5.53806000	0.47633000	10.83911300
7	0.06000000	8.98911900	0.09903900	6.73794900	9.30630900	0.22946600	3.70479500	9.85519900	0.06967700	1.04930600	9.83345900	-0.42168800	1.95253800	9.75669700	-0.17181800	1.27161300	9.67182600	1.73779900	-0.02708300	5.07112700	-1.51552000	8.49482300	5.53351000	0.49689900	10.85213700
8	0.07000000	8.96212800	0.08989400	6.75675500	9.31559000	0.20746000	3.73995600	9.89485900	0.08409200	1.05415800	9.83319800	-0.41956800	1.95431100	9.75731500	-0.20378600	1.25738900	9.68523400	1.70760300	-0.01421600	5.09908700	-1.49784900	8.48795300	5.52147200	0.46393600	10.85676000
9	0.08000000	8.99724500	0.07534200	6.73736100	9.28959600	0.21992100	3.72113900	9.90100900	0.15972100	1.03671400	9.80211500	-0.43055400	1.94671200	9.78648300	-0.22191000	1.21536000	9.66345900	1.76139500	-0.00858100	5.06984200	-1.51567100	8.49556300	5.53658200	0.47941400	10.88327700
10	0.09000000	8.97609600	0.09362900	6.80901900	9.31851800	0.20928000	3.70707500	9.89805000	0.18812500	0.98413000	9.79750500	-0.39810900	1.92046400	9.76102100	-0.27611600	1.20644000	9.68997500	1.70264900	0.01815400	5.10845200	-1.48929100	8.46818000	5.53571500	0.45399900	10.82969000
11	0.10000000	8.98839900	0.07125000	6.78496300	9.34367100	0.22621000	3.74610900	9.93022900	0.23090600	0.97085800	9.81613300	-0.43024900	1.90384500	9.78620700	-0.22381700	1.21723700	9.70881100	1.73060800	0.01695700	5.07939100	-1.50698000	8.47570100	5.55097200	0.46938600	10.85614200
12	0.11000000	8.98520400	0.09526600	6.76109900	9.28525400	0.18984500	3.73935400	9.89049100	0.21807000	0.96658100	9.81383800	-0.37521500	1.90274000	9.76184900	-0.22391200	1.21522300	9.67294700	1.73147600	-0.03140000	5.09717800	-1.49726700	8.48920200	5.52979100	0.47387200	10.84344200
13	0.12000000	8.94863700	0.08281800	6.82846600	9.28835500	0.19187700	3.70605500	9.85756100	0.22862100	0.96259700	9.78055600	-0.41065000	1.86914300	9.77046100	-0.19535900	1.15431600	9.67485000	1.68803500	-0.03530000	5.10145600	-1.51892400	8.45360700	5.55420500	0.45177500	10.88720000
14	0.13000000	8.94283800	0.05501800	6.65099400	9.28449100	0.19090000	3.74119300	9.87229600	0.17336500	1.00070400	9.80150600	-0.42022500	1.87763600	9.76272000	-0.17183600	1.22378200	9.68221800	1.70262600	-0.05353500	5.08603700	-1.50512200	8.51016200	5.52726900	0.47239600	10.84479200
15	0.14000000	8.96790000	0.08934600	6.73119300	9.29702500	0.19961300	3.76078100	9.90058100	0.16506900	1.03996000	9.83207400	-0.40727200	1.88825200	9.76075500	-0.19598700	1.23262900	9.68235400	1.70181900	-0.05452400	5.10650800	-1.48787900	8.46960100	5.54575000	0.46682000	10.85892100
16	0.15000000	9.01701300	0.08024700	6.76399500	9.27433200	0.24278500	3.72631200	9.89146000	0.11851100	1.00528600	9.82655400	-0.46041000	1.91531700	9.76068200	-0.19716500	1.23302300	9.71142600	1.68314300	0.00935500	5.07755200	-1.50538200	8.47708700	5.50150800	0.49671500	10.84515300
17	0.16000000	8.93972800	0.13197800	6.67738600	9.28390100	0.19187600	3.74260800	9.88396700	0.14749500	0.98724200	9.81464300	-0.42758600	1.91211000	9.73384600	-0.18919300	1.25336600	9.69129500	1.69517900	0.01181900	5.08963400	-1.52598800	8.47512200	5.52907200	0.45363800	10.87661500
18	0.17000000	8.93465100	0.10429500	6.74812000	9.27056400	0.24189600	3.76117600	9.88385600	0.14859200	0.98818400	9.77617600	-0.43876900	1.92779800	9.75609100	-0.21425600	1.26512200	9.66684000	1.70967300	-0.01980400	5.08725900	-1.49619500	8.45722600	5.50211900	0.47454500	10.83420600
19	0.18000000	8.99805900	0.09829900	6.70813700	9.29990500	0.20228200	3.72801700	9.91372200	0.21591500	1.04415400	9.83307100	-0.45949500	1.89678100	9.75667500	-0.24652300	1.25089200	9.66263400	1.71141900	-0.05488200	5.06617100	-1.51261600	8.49829700	5.52070700	0.46896500	10.84828300
20	0.19000000	9.06473100	0.06723400	6.69190900	9.28343600	0.19254500	3.74372600	9.90459800	0.16944600	1.00974300	9.79995200	-0.41719600	1.88640000	9.78582900	-0.26502300	1.20903500	9.70048200	1.66665700	-0.01139800	5.07180800	-1.48192800	8.51386400	5.53602500	0.48405100	10.87472600
21	0.20000000	8.97809900	0.01143700	6.69528300	9.28318800	0.19285800	3.74432500	9.87227300	0.12865000	1.02437100	9.79011500	-0.43940200	1.88551700	9.75893000	-0.25731900	1.22975900	9.70059000	1.66601800	-0.01220100	5.06610100	-1.51171600	8.49849800	5.54138000	0.44164800	10.85064700
22	0.21000000	9.00489700	-0.00586400	6.72276500	9.32143000	0.18920200	3.78341500	9.84156800	0.16348600	1.05517800	9.82065200	-0.42700400	1.89612400	9.76577700	-0.25189300	1.17658900	9.68922700	1.65190200	-0.02963800	5.07299500	-1.56249500	8.48080000	5.53357400	0.48266100	10.87603600
23	0.22000000	9.00994700	0.07324000	6.70249400	9.35025400	0.20790400	3.78771300	9.86827300	0.08046600	1.07779000	9.81082200	-0.44965900	1.89509300	9.75872500	-0.25960800	1.23090500	9.72115700	1.65139600	-0.01677200	5.15463400	-1.48621600	8.49485500	5.51922900	0.44516900	10.83846700
24	0.23000000	9.00757000	0.09824500	6.67748800	9.31866300	0.21540500	3.68102400	9.88927500	0.05222300	0.99380500	9.81061400	-0.45003500	1.89608200	9.76237200	-0.21468000	1.21538600	9.66200300	1.64777700	-0.00994400	5.08518700	-1.50030500	8.51152000	5.54526800	0.49295400	10.86103100
25	0.24000000	8.98586600	0.09120600	6.67134500	9.29505000	0.20244100	3.76550900	9.83550700	0.04443300	0.96909200	9.79136700	-0.41763300	1.91564800	9.71507900	-0.15980200	1.21658900	9.68800300	1.69164800	-0.02803200	5.09762700	-1.52065300	8.50939600	5.55032800	0.45091900	10.83708700
26	0.25000000	8.97502600	0.11339500	6.69351100	9.30148600	0.23492200	3.71654800	9.86609100	0.06147900	1.04229700	9.80493000	-0.42722900	1.94719900	9.78510000	-0.15558200	1.24884100	9.70560100	1.65964900	0.01940600	5.10124800	-1.46036900	8.50678800	5.49788000	0.45264700	10.86920200
27	0.26000000	9.01447600	0.07482400	6.69638400	9.28114400	0.22384700	3.76733600	9.91107100	0.20402800	1.01095600	9.79815200	-0.41964800	1.89518500	9.75829700	-0.14774600	1.26892400	9.69974000	1.70363600	-0.01221100	5.08767700	-1.49118600	8.45785900	5.51839400	0.49260200	10.80792600
28	0.27000000	9.00181300	0.07081800	6.64225700	9.29726500	0.20537300	3.73442900	9.88418600	0.29093900	0.98851600	9.81906100	-0.43030500	1.90360300	9.75700800	-0.20329500	1.26244200	9.68382600	1.71406100	0.02462400	5.11822700	-1.50209000	8.46899200	5.51962500	0.49647600	10.85063100
29	0.28000000	8.98607600	0.09192100	6.68894200	9.27129300	0.21810400	3.71555100	9.90954200	0.31160400	0.97426100	9.79759700	-0.42164700	1.89761000	9.77990000	-0.25976000	1.25908900	9.68388300	1.71374700	0.02395300	5.08477000	-1.49752600	8.51225800	5.56107700	0.46558800	10.86589800
30	0.29000000	8.99468600	0.06983400	6.68766100	9.30081800	0.17878900	3.68205000	9.90947800	0.31360600	0.97427400	9.79310100	-0.39159500	1.87068300	9.73389800	-0.26783400	1.23081900	9.67080600	1.74228200	0.00971100	5.09495000	-1.48881700	8.49202500	5.55970200	0.46475800	10.86663800
31	0.30000000	8.98490000	0.11901500	6.66224000	9.27157400	0.18992800	3.69678000	9.89595700	0.26861500	0.97341900	9.81183500	-0.42555600	1.85344000	9.75734800	-0.23940900	1.24917000	9.67960300	1.71579600	-0.01126600	5.09256500	-1.45926400	8.47407100	5.50469200	0.46209800	10.85671300
32	0.31000000	8.99697500	0.07274700	6.68455100	9.25494800	0.20940500	3.73086200	9.89585900	0.27028300	0.97395500	9.78290700	-0.41566900	1.87119700	9.78402700	-0.25021200	1.22956000	9.69433500	1.64491600	-0.00108900	5.12499800	-1.49947900	8.50350500	5.51716600	0.47369200	10.84127800
33	0.32000000	9.00124500	0.04953000	6.70706500	9.25510400	0.18080500	3.71243500	9.84944700	0.23432900	0.96903100	9.79420200	-0.44823600	1.87752400	9.75591800	-0.29691700	1.24296700	9.71462800	1.63185000	-0.00492800	5.08611100	-1.48890900	8.45920200	5.54490300	0.43079600	10.87263500
34	0.33000000	8.97622700	0.06804000	6.67713500	9.28392700	0.19964600	3.71672500	9.87478400	0.25416500	0.95517700	9.80773100	-0.45732000	1.90920800	9.76216700	-0.26065500	1.20455700	9.66966200	1.66056700	-0.03268000	5.10397800	-1.47907300	8.47266800	5.53798800	0.44686800	10.84356600
35	0.34000000	8.99388200	0.04914200	6.62778500	9.29653200	0.20871700	3.73606800	9.87688700	0.27947300	0.99030400	9.79369300	-0.44793900	1.88024900	9.73851200	-0.29241600	1.18697100	9.71024000	1.63446400	-0.04034500	5.11138700	-1.47771800	8.50656900	5.54742400	0.47888400	10.84039900
